<svg width="152" height="152" viewBox="0 0 152 152" xmlns="http://www.w3.org/2000/svg">
  <defs>
    <linearGradient id="gradient152" x1="0%" y1="0%" x2="100%" y2="100%">
      <stop offset="0%" style="stop-color:#667eea;stop-opacity:1" />
      <stop offset="100%" style="stop-color:#4c63d2;stop-opacity:1" />
    </linearGradient>
  </defs>
  
  <!-- Fondo redondeado para iOS -->
  <rect x="0" y="0" width="152" height="152" rx="30" ry="30" fill="url(#gradient152)" />
  
  <!-- Icono de yoga/meditaci贸n -->
  <g transform="translate(76,76)">
    <!-- Persona en posici贸n de loto -->
    <circle cx="0" cy="-20" r="14" fill="white" opacity="0.9" />
    
    <!-- Cuerpo -->
    <ellipse cx="0" cy="-4" rx="10" ry="16" fill="white" opacity="0.9" />
    
    <!-- Brazos en posici贸n de meditaci贸n -->
    <ellipse cx="-16" cy="-6" rx="5" ry="12" fill="white" opacity="0.8" transform="rotate(-30)" />
    <ellipse cx="16" cy="-6" rx="5" ry="12" fill="white" opacity="0.8" transform="rotate(30)" />
    
    <!-- Piernas cruzadas -->
    <ellipse cx="-12" cy="12" rx="6" ry="10" fill="white" opacity="0.8" transform="rotate(-20)" />
    <ellipse cx="12" cy="12" rx="6" ry="10" fill="white" opacity="0.8" transform="rotate(20)" />
    
    <!-- Elementos de zen/paz -->
    <circle cx="-28" cy="-28" r="2.5" fill="white" opacity="0.6" />
    <circle cx="28" cy="-28" r="2.5" fill="white" opacity="0.6" />
    <circle cx="-32" cy="0" r="1.5" fill="white" opacity="0.5" />
    <circle cx="32" cy="0" r="1.5" fill="white" opacity="0.5" />
    <circle cx="-28" cy="28" r="2.5" fill="white" opacity="0.6" />
    <circle cx="28" cy="28" r="2.5" fill="white" opacity="0.6" />
  </g>
  
  <!-- Texto SoftZen -->
  <text x="76" y="135" text-anchor="middle" font-family="Arial, sans-serif" font-size="11" font-weight="bold" fill="white" opacity="0.8">
    SoftZen
  </text>
</svg>
